<svg xmlns="http://www.w3.org/2000/svg" version="1.1" xmlns:xlink="http://www.w3.org/1999/xlink" width="512" height="512"><svg xmlns="http://www.w3.org/2000/svg" version="1.1" xmlns:xlink="http://www.w3.org/1999/xlink" width="512" height="512"><svg width="512" height="512" viewBox="0 0 512 512" version="1.1" id="svg1" xml:space="preserve" inkscape:version="1.4.3 (0d15f75, 2025-12-25)" sodipodi:docname="logo v2.svg" inkscape:export-filename="logo v2 output.png" inkscape:export-xdpi="96" inkscape:export-ydpi="96" xmlns:inkscape="http://www.inkscape.org/namespaces/inkscape" xmlns:sodipodi="http://sodipodi.sourceforge.net/DTD/sodipodi-0.dtd" xmlns:xlink="http://www.w3.org/1999/xlink" xmlns="http://www.w3.org/2000/svg" xmlns:svg="http://www.w3.org/2000/svg"><sodipodi:namedview id="namedview1" pagecolor="#ffffff" bordercolor="#000000" borderopacity="0.25" inkscape:showpageshadow="2" inkscape:pageopacity="0.0" inkscape:pagecheckerboard="0" inkscape:deskcolor="#d1d1d1" inkscape:document-units="px" inkscape:zoom="1.1445312" inkscape:cx="189.16041" inkscape:cy="206.19795" inkscape:window-width="1440" inkscape:window-height="830" inkscape:window-x="-6" inkscape:window-y="-6" inkscape:window-maximized="1" inkscape:current-layer="layer5"><inkscape:page x="0" y="0" width="512" height="512" id="page2" margin="0" bleed="0"></inkscape:page></sodipodi:namedview><defs id="defs1"><linearGradient id="linearGradient11" inkscape:collect="always"><stop style="stop-color:#b9481c;stop-opacity:1;" offset="0" id="stop11"></stop><stop style="stop-color:#ff9955;stop-opacity:1;" offset="1" id="stop12"></stop></linearGradient><linearGradient inkscape:collect="always" xlink:href="#linearGradient11" id="linearGradient12" x1="443.52716" y1="442.92245" x2="69.006454" y2="68.401741" gradientUnits="userSpaceOnUse" gradientTransform="matrix(1.1044167,0,0,1.1044167,-26.76493,-26.692121)"></linearGradient></defs><g inkscape:groupmode="layer" id="layer5" inkscape:label="图层 3" style="display:inline"><path d="m 255.72415,46.522939 -9.76934,68.210671 -29.67258,10.79611 19.75223,-17.94247 c 0.47871,-2.5633 0.43053,-5.12662 0,-7.689928 l -49.3342,-37.151106 0.45299,75.266424 c -15.6949,10.16966 -34.66297,33.42728 -52.41018,51.80621 l 2.32315,25.57199 -85.277357,57.86539 33.689023,0.10348 v 12.28233 l -13.134363,15.86305 11.08731,10.40566 38.635167,12.87983 76.16592,-20.04343 18.1668,10.23311 -58.10483,147.55826 40.07608,-42.24824 58.52977,44.44845 203.96765,-159.60762 -41.88586,-84.52454 33.05053,0.60397 c 0,0 -25.71114,-34.044 -41.0554,-48.73023 -12.18586,-11.66325 -43.46852,-35.46189 -43.46852,-35.46189 l 49.28299,-34.49887 -76.90392,3.25718 c 0,0 3.42507,3.49309 -7.58514,-6.468338 C 309.31226,78.50851 255.72415,46.522939 255.72415,46.522939 Z m 15.25907,26.145771 c 26.47986,20.81268 53.26847,45.95905 80.39161,75.77765 l -61.27356,87.32873 62.53976,-1.62859 -164.10079,182.88882 77.48388,-142.92921 -55.85284,2.40729 79.53741,-145.01293 z m -65.79908,122.57731 -20.02187,23.52062 -17.12709,1.56818 -14.83627,8.08252 c 0,0 6.99643,-9.31444 9.89014,-14.3531 1.83626,-3.19738 4.70455,-10.01309 4.70455,-10.01309 z" style="display:inline;fill:url(#linearGradient12);stroke-width:1.10442" id="path8" inkscape:label="final" sodipodi:nodetypes="cccccccccccccccccccccccscccsccccccccccccccscc"></path></g></svg></svg><style>@media (prefers-color-scheme: light) { :root { filter: none; } }
@media (prefers-color-scheme: dark) { :root { filter: none; } }
</style></svg>