<?xml version="1.0" standalone="no"?>
<!DOCTYPE svg PUBLIC "-//W3C//DTD SVG 20010904//EN"
 "http://www.w3.org/TR/2001/REC-SVG-20010904/DTD/svg10.dtd">
<svg version="1.0" xmlns="http://www.w3.org/2000/svg"
 width="320.000000pt" height="320.000000pt" viewBox="0 0 320.000000 320.000000"
 preserveAspectRatio="xMidYMid meet">
<metadata>
Created by potrace 1.14, written by Peter Selinger 2001-2017
</metadata>
<g transform="translate(0.000000,320.000000) scale(0.100000,-0.100000)"
fill="#000000" stroke="none">
<path d="M2457 3179 c-92 -16 -309 -81 -332 -99 -5 -4 -51 -29 -101 -55 -110
-56 -245 -156 -333 -246 -36 -37 -135 -137 -220 -223 l-155 -156 -75 0 c-42 0
-98 0 -126 0 -27 0 -70 0 -95 1 -25 0 -49 0 -55 -1 -5 -1 -14 -1 -20 0 -8 1
-205 1 -275 -1 -8 0 -44 0 -80 1 -36 0 -87 0 -115 0 -27 0 -87 1 -133 1 -45 1
-85 -1 -88 -4 -3 -3 -17 -2 -30 3 l-23 9 -1 -445 0 -445 99 -100 c108 -108
112 -117 100 -211 -3 -26 -1 -54 3 -62 6 -12 -2 -22 -34 -43 -46 -30 -98 -81
-138 -133 -14 -18 -31 -39 -37 -46 -7 -7 -13 -17 -13 -23 0 -6 -3 -11 -7 -11
-5 0 -13 -10 -19 -23 -6 -12 -26 -51 -44 -86 -32 -65 -65 -153 -74 -203 -2
-15 -7 -31 -9 -35 -27 -44 -28 -496 -2 -522 15 -14 351 -20 440 -8 152 21 369
107 461 183 108 89 135 114 165 154 32 44 37 46 89 49 30 1 57 3 60 3 65 4 76
-2 175 -101 l99 -99 88 -2 c48 0 96 -1 106 -1 9 0 167 1 349 2 190 0 335 5
339 10 7 13 7 266 -1 279 -3 5 -3 10 2 10 4 0 6 61 3 136 -3 75 -2 138 3 141
4 2 5 8 2 13 -6 10 -9 299 -3 305 2 2 1 30 -2 62 -3 32 -3 83 0 113 l5 55 138
135 c76 74 174 170 217 212 44 43 106 113 138 155 57 75 172 264 172 283 0 4
6 21 14 37 28 57 62 151 71 199 2 10 4 19 5 19 2 0 3 5 20 90 19 96 22 304 6
358 -8 26 -12 47 -9 47 3 0 -2 11 -11 25 -9 13 -16 31 -16 40 0 8 -3 15 -8 15
-4 0 -16 16 -27 36 -45 83 -178 178 -293 209 -72 19 -244 16 -365 -6z"/>
</g>
</svg>
